<?xml version="1.0" standalone="no"?>
<svg viewBox="0 0 200 200" xmlns="http://www.w3.org/2000/svg">
  <path fill="#B12121" d="M24.8,-34.8C32.8,-33.5,40.3,-27.7,45.5,-19.7C50.7,-11.8,53.6,-1.8,55,9.9C56.4,21.6,56.2,35.1,48.5,39.5C40.7,43.9,25.4,39.2,14.8,35.5C4.2,31.7,-1.8,29,-10.2,29.1C-18.7,29.3,-29.7,32.2,-42.4,29.9C-55.2,27.5,-69.8,19.8,-78.1,7.1C-86.5,-5.7,-88.6,-23.6,-80.8,-35.3C-73,-47.1,-55.3,-52.8,-40.2,-50.8C-25,-48.8,-12.5,-39.1,-2,-36C8.4,-32.8,16.9,-36.1,24.8,-34.8Z" transform="translate(100 100)" />
</svg>
